<svg version="1.1" id="Layer_1" xmlns="http://www.w3.org/2000/svg" xmlns:xlink="http://www.w3.org/1999/xlink" x="0px" y="0px"
	 width="100%" viewBox="0 0 1024 1024" enable-background="new 0 0 1024 1024" xml:space="preserve">
<path fill="#000000" opacity="1.000000" stroke="none" 
	d="
M393.739136,396.718262 
	C407.794220,384.761780 421.570557,373.023254 436.163269,360.589111 
	C441.368011,372.310150 446.173279,383.131592 451.434906,394.980743 
	C454.809570,388.515167 455.251038,382.498505 456.461273,376.793915 
	C461.567108,352.727844 466.368988,328.597321 471.280182,304.489960 
	C472.681366,297.612122 471.443146,296.359863 464.521545,297.583313 
	C436.517365,302.533508 408.511200,307.472626 380.507904,312.427887 
	C379.056091,312.684784 377.560608,312.895172 375.679688,314.741058 
	C386.740051,320.114258 397.479462,325.331512 409.341675,331.094238 
	C387.372467,349.688873 366.367584,367.467285 345.274017,385.320770 
	C342.495758,383.113800 341.972015,380.409088 341.113525,377.990723 
	C325.498138,334.000702 340.314636,281.343842 376.248108,251.532242 
	C401.199158,230.832016 429.750061,220.726364 461.895660,224.042496 
	C504.890564,228.477844 536.671814,250.614609 555.955200,289.453094 
	C577.962158,333.777161 569.279297,387.631561 535.023254,423.365631 
	C529.584106,429.039459 523.559814,434.157501 516.863098,438.185272 
	C512.213196,440.981964 512.280640,444.079620 513.465088,448.540283 
	C525.547791,494.045685 537.520142,539.580505 549.447632,585.126953 
	C552.763184,597.787903 546.851929,608.458069 534.913269,611.627563 
	C533.013245,612.132019 530.967468,612.268555 528.988953,612.269226 
	C480.823395,612.286438 432.657776,612.296204 384.492310,612.225464 
	C369.085938,612.202881 359.718933,600.464966 363.490723,585.475891 
	C374.207062,542.889343 385.173492,500.365723 396.037933,457.816437 
	C396.984344,454.109772 397.620178,450.293365 398.916473,446.714966 
	C400.242249,443.055084 398.915924,441.296112 395.790710,439.592468 
	C385.787231,434.139343 376.918457,427.197388 368.859039,418.279907 
	C376.818604,410.568817 385.226013,403.848724 393.739136,396.718262 
z"/>
<path fill="#000000" opacity="1.000000" stroke="none" 
	d="
M602.352661,226.494507 
	C650.574341,238.804993 685.989929,278.695312 691.026672,327.668243 
	C697.004944,385.794464 665.912231,437.026550 608.269287,455.134094 
	C596.921753,458.698700 585.154175,459.987579 573.286377,460.096375 
	C562.792969,460.192566 552.297485,460.074768 541.803040,460.026245 
	C538.934937,460.013000 536.174377,460.089661 535.269470,456.235657 
	C534.421509,452.623962 533.280701,449.745514 537.110779,446.568604 
	C561.812134,426.079620 577.941467,400.081146 584.247314,368.600830 
	C594.835815,315.740845 574.694092,260.454742 527.956299,228.123535 
	C526.215271,226.919159 524.470764,225.719879 522.912476,223.582809 
	C549.388000,223.398529 575.794617,220.541519 602.352661,226.494507 
z"/>
<path fill="#000000" opacity="1.000000" stroke="none" 
	d="
M425.148010,735.244385 
	C422.005066,734.276123 422.752258,731.945190 422.734894,730.104187 
	C422.648987,720.971558 422.695709,711.837708 421.909241,702.502380 
	C417.956268,710.779114 413.983124,719.046265 410.062012,727.338074 
	C408.806885,729.992188 407.560822,732.246948 403.926361,732.141418 
	C400.481171,732.041504 399.550232,729.746338 398.372284,727.305481 
	C394.614166,719.518127 390.779510,711.767700 385.971954,704.044128 
	C385.971954,712.695129 385.907928,721.346802 386.002777,729.996643 
	C386.041962,733.569824 385.126282,735.518433 380.940735,735.463989 
	C377.043121,735.413330 375.665070,734.121033 375.722290,730.224060 
	C375.913025,717.236572 375.802734,704.244873 375.915131,691.255737 
	C375.935150,688.939636 375.027435,685.449402 378.637665,685.303833 
	C382.595612,685.144348 387.531860,682.679016 390.176178,688.123535 
	C394.320770,696.656921 398.366089,705.238464 402.466370,713.793457 
	C402.889801,714.676941 403.400787,715.518494 404.305725,717.174927 
	C406.508148,712.655396 408.450775,708.730774 410.338196,704.779785 
	C412.490723,700.273682 414.556152,695.725647 416.727905,691.228943 
	C419.725250,685.022766 422.622620,683.698059 429.370209,685.014160 
	C431.667297,685.462280 432.322754,686.735352 432.319885,688.843689 
	C432.300812,702.999268 432.286072,717.155090 432.350891,731.310425 
	C432.375305,736.642151 428.515015,735.081360 425.148010,735.244385 
z"/>
<path fill="#000000" opacity="1.000000" stroke="none" 
	d="
M284.090302,732.265808 
	C280.359314,732.431458 279.672150,729.700317 278.642181,727.522705 
	C274.738739,719.270081 270.936005,710.969849 266.342438,702.768005 
	C266.342438,711.809814 266.249115,720.853149 266.389160,729.892822 
	C266.443878,733.422852 265.824951,735.455688 261.542633,735.462708 
	C257.259521,735.469666 256.646576,733.428711 256.673828,729.906128 
	C256.774353,716.913025 256.658630,703.918457 256.724823,690.924866 
	C256.736481,688.634888 255.727707,685.237244 259.595276,685.203552 
	C263.587189,685.168701 268.419952,682.878845 270.960999,688.487793 
	C274.807922,696.979492 278.795563,705.407532 282.734314,713.857544 
	C283.146973,714.742798 283.632812,715.593994 284.588226,717.427124 
	C286.715118,713.087952 288.553345,709.483704 290.261566,705.818909 
	C292.934387,700.084595 295.554840,694.325012 298.124146,688.543640 
	C299.179779,686.168274 300.750946,685.031311 303.468842,684.891541 
	C312.101257,684.447754 312.352448,684.599792 312.355194,693.379150 
	C312.359039,705.540100 312.300476,717.701782 312.421387,729.861633 
	C312.456177,733.362488 311.891327,735.451294 307.593567,735.462097 
	C303.359558,735.472717 302.619568,733.530518 302.676331,729.953064 
	C302.818604,720.982422 302.723328,712.007935 302.047333,702.832458 
	C298.122437,711.167847 294.181976,719.495972 290.282104,727.843079 
	C289.110535,730.350586 287.908569,732.724365 284.090302,732.265808 
z"/>
<path fill="#000000" opacity="1.000000" stroke="none" 
	d="
M484.728027,712.474609 
	C488.524689,717.400208 489.282043,722.423523 486.596100,727.691101 
	C483.889282,732.999512 479.029114,735.067505 473.442688,735.252075 
	C465.799255,735.504578 458.140594,735.260010 450.491791,735.404907 
	C447.289520,735.465576 445.980072,734.193726 445.997620,731.017700 
	C446.073914,717.212402 446.060760,703.406555 446.070953,689.600952 
	C446.072876,687.020325 446.603760,684.859924 449.833282,684.951294 
	C457.633240,685.171997 465.463837,684.243530 473.234253,685.573669 
	C485.302307,687.639587 489.155121,697.973389 481.457733,707.606567 
	C481.163940,707.974243 481.016418,708.458740 480.685608,709.118469 
	C481.964142,710.159424 483.221375,711.183044 484.728027,712.474609 
M456.475555,724.816589 
	C460.030121,727.625977 473.001312,727.488953 476.049683,724.636841 
	C477.835907,722.965576 478.037537,720.878723 477.624390,718.678711 
	C477.162903,716.221252 475.258331,715.024048 473.094604,714.624939 
	C470.838440,714.208740 468.478943,714.235291 466.166718,714.260376 
	C455.403320,714.377075 456.269409,712.578674 456.475555,724.816589 
M456.362244,696.988159 
	C456.361389,698.982300 456.331207,700.976929 456.369202,702.970337 
	C456.398254,704.496338 457.115906,705.601746 458.736267,705.599182 
	C462.716125,705.592896 466.725647,705.729614 470.664276,705.285583 
	C473.029053,705.019043 474.888611,703.299805 475.480377,700.772827 
	C475.936676,698.824341 475.214233,697.167358 473.731140,695.864258 
	C470.949310,693.419983 459.662140,693.621521 456.362244,696.988159 
z"/>
<path fill="#000000" opacity="1.000000" stroke="none" 
	d="
M588.824463,694.615356 
	C592.263550,704.829468 589.695618,712.615723 580.126404,718.126587 
	C583.916382,723.574280 587.481689,728.699158 591.083740,733.876770 
	C584.736267,736.963623 580.247253,735.925171 576.708801,730.843201 
	C574.711243,727.974304 572.683350,725.124878 570.758057,722.207947 
	C569.580261,720.423584 568.194763,719.435486 565.906311,719.308044 
	C558.612305,718.901794 558.308411,719.094604 558.304443,726.407104 
	C558.303772,727.572510 558.197937,728.749512 558.322937,729.901306 
	C558.764893,733.973145 557.106567,735.444275 552.932678,735.463379 
	C548.606750,735.483154 548.064880,733.345947 548.077881,729.868530 
	C548.127197,716.716614 548.095642,703.563110 547.924377,690.412415 
	C547.875732,686.679749 549.065063,684.806519 553.048096,684.951355 
	C560.689514,685.229126 568.362427,684.455322 575.977417,685.687988 
	C581.534363,686.587463 586.070251,688.964539 588.824463,694.615356 
M572.031128,709.947632 
	C577.969910,708.941833 580.271118,706.352051 579.818848,701.183472 
	C579.431030,696.751526 576.561401,694.479492 571.105469,694.320007 
	C569.612854,694.276306 568.118042,694.304565 566.624268,694.304199 
	C558.302002,694.301941 558.302002,694.302368 558.314209,702.612488 
	C558.325012,710.003052 558.324951,710.005249 565.658447,710.007080 
	C567.484131,710.007507 569.309875,709.988831 572.031128,709.947632 
z"/>
<path fill="#000000" opacity="1.000000" stroke="none" 
	d="
M326.600525,709.067688 
	C326.885956,702.089844 325.819153,695.630005 326.401672,689.108032 
	C326.663483,686.176697 327.438477,684.875549 330.460602,684.893555 
	C340.624603,684.954041 350.789856,684.946106 360.953491,684.845581 
	C364.730377,684.808289 365.211609,687.008850 365.246857,690.042542 
	C365.285004,693.324219 363.802368,694.412537 360.674713,694.356018 
	C354.178436,694.238647 347.669556,694.553162 341.182343,694.287781 
	C336.364807,694.090576 336.410522,696.924072 336.302917,700.375183 
	C336.187073,704.090881 337.197083,705.965698 341.329437,705.764282 
	C346.648926,705.505005 351.995209,705.838440 357.321472,705.660889 
	C360.856354,705.543091 361.995453,707.167297 362.049835,710.442444 
	C362.103455,713.670288 360.644623,714.991943 357.565033,714.991272 
	C351.899811,714.990112 346.233368,715.131104 340.569733,715.050049 
	C334.878571,714.968689 336.731720,719.165588 336.355560,722.146851 
	C335.915009,725.638367 337.695068,726.294128 340.794800,726.191833 
	C347.453400,725.972229 354.126404,726.211792 360.787292,726.032471 
	C364.740540,725.926025 365.375610,727.956116 365.415100,731.332886 
	C365.455475,734.782776 363.986298,735.502502 360.901123,735.466248 
	C349.615845,735.333557 338.328033,735.413757 326.601257,735.413757 
	C326.601257,726.440186 326.601257,717.998657 326.600525,709.067688 
z"/>
<path fill="#000000" opacity="1.000000" stroke="none" 
	d="
M537.130920,688.265381 
	C537.863037,693.175415 535.825806,694.573914 531.517944,694.392761 
	C525.207458,694.127319 518.873291,694.476196 512.555359,694.318359 
	C507.758453,694.198547 508.460114,697.441101 508.311554,700.423706 
	C508.151276,703.641174 508.529327,705.936218 512.725098,705.747742 
	C518.370239,705.494141 524.038208,705.797119 529.691406,705.658386 
	C532.926941,705.579041 534.098206,706.958191 534.171021,710.093689 
	C534.242920,713.188354 533.170715,714.845398 529.965515,714.863403 
	C524.974609,714.891418 519.978699,715.095215 514.994629,714.929810 
	C510.858917,714.792603 508.188721,715.070068 508.146729,720.616577 
	C508.102020,726.524414 511.439697,726.060791 515.206848,726.033020 
	C520.197754,725.996155 525.189270,726.034363 530.180481,726.030457 
	C538.136963,726.024170 538.344543,726.292786 536.709229,735.340576 
	C524.897766,735.340576 512.967285,735.350525 501.036743,735.331970 
	C498.757904,735.328491 498.465027,733.823669 498.474548,731.939392 
	C498.546753,717.632507 498.635590,703.325012 498.545715,689.018738 
	C498.526306,685.931458 499.718475,684.877808 502.638214,684.897766 
	C512.619995,684.966125 522.602600,684.909363 532.584717,684.943298 
	C534.637146,684.950256 536.680664,685.155457 537.130920,688.265381 
z"/>
<path fill="#000000" opacity="1.000000" stroke="none" 
	d="
M648.987671,706.000427 
	C649.007874,700.173584 649.128052,694.844482 649.018188,689.520142 
	C648.935120,685.494385 651.318909,685.017151 654.525208,684.980713 
	C657.845215,684.942810 659.472656,686.104553 659.330017,689.629639 
	C659.168640,693.618225 659.406921,697.622314 659.273987,701.613037 
	C659.176514,704.540283 660.246399,705.923645 663.296509,705.857910 
	C668.454834,705.746765 673.617126,705.782471 678.777405,705.816101 
	C681.507812,705.833862 682.687317,704.561279 682.638062,701.844360 
	C682.559509,697.517456 682.772949,693.180115 682.559509,688.862244 
	C682.389526,685.424683 684.370483,685.000122 686.963501,685.121399 
	C689.388977,685.234863 692.281677,684.678162 692.276550,688.583679 
	C692.257568,703.066650 692.255554,717.549561 692.239075,732.032532 
	C692.235046,735.560181 689.672058,735.289612 687.312439,735.324585 
	C684.830505,735.361328 682.565125,735.268799 682.661194,731.782043 
	C682.766602,727.956482 682.515198,724.117859 682.698914,720.298462 
	C682.867920,716.786621 681.811340,715.016968 677.939026,715.216675 
	C673.289856,715.456360 668.614685,715.409485 663.959473,715.242493 
	C660.568542,715.120911 659.064636,716.330322 659.257812,719.859680 
	C659.457642,723.510681 659.134094,727.189819 659.321045,730.842224 
	C659.504822,734.433472 657.816650,735.437256 654.520630,735.393188 
	C651.353699,735.350769 648.936829,735.094727 648.997925,730.971069 
	C649.118835,722.815979 649.005371,714.657410 648.987671,706.000427 
z"/>
<path fill="#000000" opacity="1.000000" stroke="none" 
	d="
M730.921631,705.000793 
	C730.922607,699.513611 731.000671,694.524719 730.896973,689.539490 
	C730.830811,686.357544 732.269775,684.970459 735.375244,685.021851 
	C742.677734,685.142761 750.003113,684.473633 757.272217,685.700989 
	C765.995972,687.174072 771.656250,693.634277 772.046814,702.580505 
	C772.410583,710.914124 767.008484,717.992859 758.591614,720.020691 
	C754.539795,720.996948 750.391785,721.444580 746.222656,721.155151 
	C742.671753,720.908630 740.823364,722.141968 741.270752,725.955566 
	C741.405457,727.103455 741.226135,728.284790 741.301941,729.443542 
	C741.532410,732.966309 741.156921,735.450378 736.424805,735.467407 
	C731.776733,735.484131 730.821472,733.499146 730.917297,729.438538 
	C731.105591,721.463684 730.940552,713.480408 730.921631,705.000793 
M747.584839,711.853882 
	C749.908203,711.777649 752.277771,711.964905 754.544739,711.567200 
	C758.571289,710.860779 761.058411,708.270203 761.568726,704.204773 
	C762.046021,700.402588 760.656311,697.202576 757.061279,695.560791 
	C752.496887,693.476379 747.248230,693.292480 742.962036,694.964478 
	C739.296997,696.394043 741.958374,701.249146 741.323059,704.513062 
	C741.198486,705.153381 741.384216,705.849548 741.294678,706.501831 
	C740.719666,710.689392 742.636414,712.330566 747.584839,711.853882 
z"/>
<path fill="#000000" opacity="1.000000" stroke="none" 
	d="
M605.955322,722.074463 
	C610.940918,725.875732 616.173645,727.645020 622.112061,726.776367 
	C624.901062,726.368408 627.322815,725.287048 627.703552,722.043274 
	C628.064453,718.968811 626.024231,717.422241 623.542725,716.593262 
	C619.765686,715.331360 615.880432,714.397400 612.058899,713.264221 
	C603.488037,710.722473 600.261719,706.404846 600.691956,698.136047 
	C601.034241,691.558044 606.012329,686.208069 613.570374,684.974487 
	C620.612244,683.825195 627.465515,684.576050 633.856445,688.228943 
	C636.492371,689.735657 637.583679,691.205933 635.727661,694.115112 
	C634.166443,696.562195 633.326111,699.160767 629.392944,696.931274 
	C625.233887,694.573669 620.699890,692.644531 615.619324,694.156982 
	C613.439880,694.805847 611.530029,695.721741 611.283569,698.335510 
	C611.018066,701.152100 612.732849,702.764587 615.051514,703.555176 
	C618.658875,704.785156 622.403625,705.605408 626.049805,706.729980 
	C634.817017,709.433899 638.637451,714.239563 638.308228,721.993591 
	C638.004028,729.158875 633.450256,734.006104 624.835144,735.716797 
	C616.446777,737.382507 608.667725,735.390015 601.547607,730.792603 
	C600.087219,729.849609 597.763855,728.591675 599.468689,726.596130 
	C601.108582,724.676697 601.194519,720.188965 605.955322,722.074463 
z"/>
<path fill="#000000" opacity="1.000000" stroke="none" 
	d="
M627.849243,771.764771 
	C631.166809,771.423279 632.389771,773.300415 633.442810,775.534119 
	C635.832336,780.602905 638.290833,785.639160 641.210205,791.704224 
	C644.033203,785.771790 646.612976,780.819946 648.754700,775.685303 
	C650.190063,772.244080 652.539490,771.279541 655.863220,771.882568 
	C659.382874,772.521240 658.247864,775.416687 658.282349,777.512085 
	C658.402771,784.829956 658.319824,792.151123 658.329224,799.471008 
	C658.331970,801.620422 658.129761,803.545715 655.251587,803.525696 
	C652.517395,803.506714 651.974609,801.753174 651.972961,799.531189 
	C651.969604,794.964905 651.971924,790.398621 650.879639,785.637329 
	C648.965515,789.627014 647.085449,793.633545 645.120728,797.598145 
	C644.313110,799.228027 643.495361,800.991699 641.221252,800.941833 
	C638.984497,800.892761 638.214172,799.183899 637.394043,797.511475 
	C635.302368,793.246216 633.181702,788.995178 630.239380,784.911316 
	C630.239380,789.496155 630.277344,794.081360 630.222656,798.665588 
	C630.197266,800.789673 630.517944,803.224426 627.207153,803.299133 
	C624.052429,803.370300 623.847717,801.226624 623.840881,798.928406 
	C623.818054,791.275879 623.832825,783.623169 623.785156,775.970825 
	C623.769470,773.446960 624.534119,771.723022 627.849243,771.764771 
z"/>
<path fill="#000000" opacity="1.000000" stroke="none" 
	d="
M551.778320,802.604065 
	C544.281372,797.876587 541.133728,790.308350 543.278748,782.826111 
	C545.327637,775.679138 551.899658,770.800842 559.296875,770.936157 
	C567.503723,771.086365 573.836121,776.095520 575.789612,784.281860 
	C577.213318,790.247681 575.647156,795.599243 571.122192,799.707397 
	C565.558655,804.758545 559.091980,805.658020 551.778320,802.604065 
M558.681763,777.165161 
	C552.053650,778.635010 549.080933,782.058228 549.304443,787.963806 
	C549.499390,793.117554 553.212708,797.341309 558.048706,797.910095 
	C564.047424,798.615662 568.905029,794.792419 569.616272,788.856140 
	C570.265991,783.432861 565.946106,776.937195 558.681763,777.165161 
z"/>
<path fill="#000000" opacity="1.000000" stroke="none" 
	d="
M612.787292,779.697754 
	C614.300415,785.623413 611.123657,789.184998 607.366821,792.337585 
	C608.390869,796.582947 612.540833,798.664246 613.671875,802.855652 
	C610.511780,804.867432 607.813599,804.591248 605.519409,801.588623 
	C604.208008,799.872253 602.910522,798.136292 601.740845,796.322693 
	C600.212891,793.953491 598.116760,792.881104 595.384155,793.476074 
	C592.235107,794.161865 593.518799,796.860962 593.182739,798.807983 
	C592.987427,799.939697 593.034851,801.174927 592.577148,802.183960 
	C592.024780,803.401489 590.674072,803.332642 589.498535,803.256958 
	C587.931702,803.156189 586.974304,802.249023 586.967285,800.726807 
	C586.926575,791.920349 586.928284,783.113281 587.003723,774.307129 
	C587.016846,772.775391 588.143250,771.881958 589.645874,771.853760 
	C594.787842,771.757324 599.969666,771.184875 605.055725,772.204712 
	C608.926453,772.980835 611.537109,775.433960 612.787292,779.697754 
M593.828064,778.496704 
	C593.092468,781.401001 591.960754,785.005371 594.351135,786.901428 
	C596.736145,788.793152 600.394165,788.034546 603.418762,786.843933 
	C605.258728,786.119568 606.480957,784.686035 606.491272,782.687561 
	C606.502563,780.502441 605.300903,778.904602 603.209290,778.162415 
	C600.319275,777.136841 597.377380,777.013489 593.828064,778.496704 
z"/>
<path fill="#000000" opacity="1.000000" stroke="none" 
	d="
M716.919800,726.904053 
	C716.212585,730.112183 718.794128,734.155457 713.975830,735.229126 
	C708.438721,736.462830 706.742126,735.038391 706.728760,729.309082 
	C706.698425,716.310303 706.832764,703.309570 706.640076,690.313538 
	C706.582336,686.416626 707.899414,684.996338 711.785095,684.975586 
	C715.789062,684.954224 716.988892,686.695312 716.953064,690.423584 
	C716.837769,702.421326 716.916260,714.420959 716.919800,726.904053 
z"/>
<path fill="#000000" opacity="1.000000" stroke="none" 
	d="
M445.272888,778.293579 
	C446.037109,776.577087 446.498962,775.128784 447.252136,773.852295 
	C448.890167,771.076416 453.263336,770.593445 454.643280,773.371216 
	C459.408173,782.962952 463.774231,792.752808 468.403717,802.707092 
	C464.622742,804.290527 461.864807,804.488342 460.379822,800.816956 
	C459.195129,797.887878 457.188446,796.847717 454.159973,797.077087 
	C452.013336,797.239685 449.841583,797.196350 447.687439,797.100769 
	C445.138489,796.987732 443.139008,797.529663 442.216736,800.277954 
	C441.047424,803.762329 438.591278,804.192383 434.912598,802.606323 
	C437.420685,794.236267 441.877411,786.682312 445.272888,778.293579 
M455.062897,788.907043 
	C453.910034,786.250977 452.757172,783.594910 451.271484,780.171997 
	C449.173645,783.934570 447.410156,786.753601 446.991211,790.211731 
	C451.933258,791.029297 451.933258,791.029297 455.062897,788.907043 
z"/>
<path fill="#000000" opacity="1.000000" stroke="none" 
	d="
M394.228210,783.858948 
	C392.248077,791.506653 388.836090,794.318298 380.939484,794.223694 
	C376.770874,794.173828 374.577850,795.140686 375.188171,799.733826 
	C375.446136,801.675659 375.056274,803.405090 372.424164,803.447083 
	C369.826202,803.488647 368.881622,802.137939 368.882446,799.752319 
	C368.885254,791.620972 368.872253,783.489685 368.863037,775.358337 
	C368.860596,773.202393 369.766266,771.831299 372.073547,771.834961 
	C376.052887,771.841187 380.076050,771.555115 384.001526,772.037231 
	C390.473236,772.831970 393.383453,776.346069 394.228210,783.858948 
M387.330750,784.837769 
	C387.522156,778.487183 383.545227,776.367554 375.240967,778.701660 
	C375.240967,780.886475 375.235687,783.180237 375.242767,785.473999 
	C375.247864,787.134216 375.740143,788.436951 377.683441,788.544678 
	C381.180542,788.738647 384.730652,789.068420 387.330750,784.837769 
z"/>
<path fill="#000000" opacity="1.000000" stroke="none" 
	d="
M510.668884,797.502930 
	C510.676636,790.069763 510.767426,783.080811 510.649506,776.095520 
	C510.595520,772.895386 511.866211,771.591370 515.066162,771.678040 
	C520.219971,771.817688 525.379761,771.729736 530.537048,771.747498 
	C532.556274,771.754456 534.192932,772.202087 534.163147,774.748413 
	C534.132812,777.340698 532.450989,777.615967 530.438416,777.576233 
	C526.946838,777.507202 523.450806,777.563538 519.963318,777.413513 
	C516.881592,777.281067 516.586975,779.016479 516.504944,781.524231 
	C516.417297,784.203491 517.076050,785.703613 519.997742,785.642273 
	C523.157166,785.575989 526.319092,785.634338 529.478577,785.570312 
	C531.296570,785.533508 532.880371,785.712830 532.998718,788.028015 
	C533.122009,790.437927 531.721863,791.245056 529.566956,791.240479 
	C526.905212,791.234802 524.233704,791.380249 521.583984,791.201050 
	C517.735535,790.940796 515.959351,792.481628 516.360474,796.409607 
	C516.478149,797.560974 516.350708,798.736389 516.352295,799.900818 
	C516.355164,802.056641 515.555664,803.383850 513.135925,803.327148 
	C510.768097,803.271606 510.500122,801.790649 510.618317,799.944336 
	C510.660797,799.280884 510.652069,798.614014 510.668884,797.502930 
z"/>
<path fill="#000000" opacity="1.000000" stroke="none" 
	d="
M487.986664,771.719788 
	C491.136719,771.729980 493.793732,771.750183 496.450775,771.747375 
	C498.545929,771.745239 500.043915,772.391785 500.006714,774.839722 
	C499.972168,777.113464 498.490875,777.739441 496.655426,777.434326 
	C491.074005,776.506470 489.720947,779.229187 490.087433,784.222046 
	C490.402527,788.515259 490.248993,792.858765 490.044464,797.167786 
	C489.931793,799.541199 491.236877,803.137756 486.980652,803.211365 
	C482.250763,803.293091 483.853699,799.395996 483.734497,796.936096 
	C483.509613,792.296570 483.477905,787.630493 483.702698,782.991699 
	C483.891632,779.093140 482.800262,776.984131 478.462402,777.331543 
	C476.620544,777.479065 474.089264,777.850830 473.963013,774.835083 
	C473.826263,771.568542 476.388092,771.814514 478.526184,771.763428 
	C481.514008,771.691895 484.504364,771.729126 487.986664,771.719788 
z"/>
<path fill="#000000" opacity="1.000000" stroke="none" 
	d="
M410.485779,779.113403 
	C411.244873,784.184570 410.535706,788.835327 410.394928,793.482422 
	C410.304596,796.463379 411.490326,797.772644 414.487061,797.681641 
	C417.646606,797.585815 420.812195,797.712524 423.974640,797.683899 
	C426.207031,797.663696 428.032410,798.095703 427.984192,800.865356 
	C427.937500,803.548218 426.022491,803.489746 424.103424,803.471985 
	C419.109802,803.425842 414.111511,803.282654 409.123535,803.442200 
	C405.784546,803.548950 404.386017,802.612915 404.560150,798.927124 
	C404.881897,792.116882 404.530029,785.276978 404.742584,778.458252 
	C404.818970,776.008850 403.190948,771.875732 407.836304,772.063477 
	C412.481598,772.251282 410.122070,776.238159 410.485779,779.113403 
z"/>
</svg>